<?xml version="1.0" encoding="utf-8"?>
<!-- Generator: Adobe Illustrator 16.0.4, SVG Export Plug-In . SVG Version: 6.00 Build 0)  -->
<!DOCTYPE svg PUBLIC "-//W3C//DTD SVG 1.1//EN" "http://www.w3.org/Graphics/SVG/1.1/DTD/svg11.dtd">
<svg version="1.1" id="Layer_1" xmlns="http://www.w3.org/2000/svg" xmlns:xlink="http://www.w3.org/1999/xlink" x="0px" y="0px"
	 width="100px" height="100px" viewBox="0 0 100 100" enable-background="new 0 0 100 100" xml:space="preserve">
<g>
	<path fill="#1C1C1C" d="M50,48.586L98.018,0.568C97.423,0.216,96.738,0,96,0H4C3.262,0,2.578,0.216,1.982,0.568L50,48.586z"/>
	<path fill="#1C1C1C" d="M99.432,98.018C99.784,97.423,100,96.738,100,96V4c0-0.738-0.216-1.422-0.568-2.018L51.414,50
		L99.432,98.018z"/>
	<path fill="#1C1C1C" d="M50,51.414L1.982,99.432C2.578,99.784,3.262,100,4,100h92c0.738,0,1.423-0.216,2.018-0.568L50,51.414z"/>
	<path fill="#1C1C1C" d="M0.568,1.982C0.216,2.578,0,3.262,0,4v92c0,0.738,0.216,1.423,0.568,2.018L48.586,50L0.568,1.982z"/>
</g>
</svg>
